<?xml version="1.0" encoding="UTF-8" standalone="no"?>
<!-- Created with Inkscape (http://www.inkscape.org/) -->

<svg
   xmlns:dc="http://purl.org/dc/elements/1.1/"
   xmlns:cc="http://creativecommons.org/ns#"
   xmlns:rdf="http://www.w3.org/1999/02/22-rdf-syntax-ns#"
   xmlns:svg="http://www.w3.org/2000/svg"
   xmlns="http://www.w3.org/2000/svg"
   xmlns:sodipodi="http://sodipodi.sourceforge.net/DTD/sodipodi-0.dtd"
   xmlns:inkscape="http://www.inkscape.org/namespaces/inkscape"
   version="1.1"
   id="svg815"
   xml:space="preserve"
   width="1056"
   height="816"
   viewBox="0 0 1056 816"
   sodipodi:docname="background-3-publicdomainvectors.org.svg"
   inkscape:version="0.92.4 (5da689c313, 2019-01-14)"><metadata
     id="metadata821"><rdf:RDF><cc:Work
         rdf:about=""><dc:format>image/svg+xml</dc:format><dc:type
           rdf:resource="http://purl.org/dc/dcmitype/StillImage" /><dc:title></dc:title></cc:Work></rdf:RDF></metadata><defs
     id="defs819"><clipPath
       clipPathUnits="userSpaceOnUse"
       id="clipPath831"><path
         d="M 0,612 H 792 V 0 H 0 Z"
         id="path829"
         inkscape:connector-curvature="0" /></clipPath></defs><sodipodi:namedview
     pagecolor="#ffffff"
     bordercolor="#666666"
     borderopacity="1"
     objecttolerance="10"
     gridtolerance="10"
     guidetolerance="10"
     inkscape:pageopacity="0"
     inkscape:pageshadow="2"
     inkscape:window-width="1920"
     inkscape:window-height="1018"
     id="namedview817"
     showgrid="false"
     inkscape:zoom="1.0404412"
     inkscape:cx="528"
     inkscape:cy="408"
     inkscape:window-x="-8"
     inkscape:window-y="-8"
     inkscape:window-maximized="1"
     inkscape:current-layer="g823" /><g
     id="g823"
     inkscape:groupmode="layer"
     inkscape:label="background-3-publicdomainvectors.org [Converted]"
     transform="matrix(1.3333333,0,0,-1.3333333,0,816)"><g
       id="g825"><g
         id="g827"
         clip-path="url(#clipPath831)"><path
           d="m 102.188,494.332 c 0.23,0.561 0.458,1.12 0.693,1.683 -0.459,-0.471 -0.92,-0.942 -1.372,-1.411 -0.256,-0.563 -0.516,-1.129 -0.766,-1.689 0.479,0.471 0.959,0.943 1.445,1.417"
           style="fill:#3f87cf;fill-opacity:1;fill-rule:nonzero;stroke:none"
           id="path833"
           inkscape:connector-curvature="0" /><path
           d="m 395.845,319.158 c 5.144,2.587 10.926,5.099 17.387,7.412 18.332,6.543 41.789,12.51 72.244,18.955 38.459,8.138 87.561,16.937 149.829,27.899 43.737,7.709 90.984,16.318 141.071,25.582 5.116,0.938 10.274,1.886 15.453,2.838 v 32.282 C 742.053,422.922 694.974,412.188 651.206,402.538 590.158,389.096 541.573,378.06 503.204,368.03 c -30.557,-8.005 -54.307,-15.288 -72.925,-23.001 -9.889,-4.1 -18.256,-8.585 -25.205,-13.053 -1.02,-1.719 -2.059,-3.483 -3.18,-5.331 -1.428,-2.367 -3.508,-4.925 -6.049,-7.487"
           style="fill:#3f87cf;fill-opacity:1;fill-rule:nonzero;stroke:none"
           id="path835"
           inkscape:connector-curvature="0" /><path
           d="m 110.588,512.773 c -0.867,-1.591 -1.708,-3.17 -2.528,-4.74 0.314,0.518 0.635,1.038 0.953,1.558 0.51,1.053 1.045,2.119 1.575,3.182"
           style="fill:#3f87cf;fill-opacity:1;fill-rule:nonzero;stroke:none"
           id="path837"
           inkscape:connector-curvature="0" /><path
           d="m 87.172,451.449 c -3.742,-18.593 -3.831,-36.05 -1.038,-51.848 2.801,-15.778 8.544,-30.419 16.349,-43.6 14.998,-25.253 37.875,-45.949 64.454,-62.099 27.809,-16.874 58.251,-28.257 89.017,-34.488 24.127,-4.869 44.689,-6.317 62.969,-2.75 1.714,0.34 3.41,0.817 5.077,1.383 1.136,1.929 2.38,3.729 4.214,5.576 0.874,0.89 1.971,1.892 3.015,2.803 -0.297,-0.076 -0.593,-0.167 -0.892,-0.239 -18.837,-4.409 -40.004,-3.634 -64.769,0.475 -31.586,5.293 -62.793,15.903 -91.405,32.065 -27.315,15.494 -50.89,35.627 -66.579,60.49 -8.153,12.954 -14.247,27.406 -17.395,43.052 -3.141,15.632 -3.426,32.954 -0.132,51.484 1.841,10.315 4.804,21.197 9.015,32.614 0.24,0.649 0.5,1.308 0.747,1.962 -0.542,-0.443 -1.069,-0.884 -1.604,-1.325 -0.386,-0.935 -0.78,-1.874 -1.149,-2.8 -4.549,-11.444 -7.802,-22.376 -9.894,-32.755"
           style="fill:#3f87cf;fill-opacity:1;fill-rule:nonzero;stroke:none"
           id="path839"
           inkscape:connector-curvature="0" /><path
           d="m 350.291,281.746 c 2.442,1.487 5.217,2.974 8.327,4.412 0.515,0.868 1.021,1.713 1.528,2.539 -2.014,-0.991 -4.095,-1.871 -6.208,-2.63 -1.406,-1.466 -2.589,-2.888 -3.647,-4.321"
           style="fill:#3f87cf;fill-opacity:1;fill-rule:nonzero;stroke:none"
           id="path841"
           inkscape:connector-curvature="0" /><path
           d="m 113.056,517.622 c -0.846,-1.628 -1.669,-3.244 -2.468,-4.849 0.571,1.047 1.165,2.106 1.758,3.164 0.235,0.56 0.47,1.121 0.71,1.685"
           style="fill:#3f87cf;fill-opacity:1;fill-rule:nonzero;stroke:none"
           id="path843"
           inkscape:connector-curvature="0" /><path
           d="m 107.724,506.868 c -0.353,-0.517 -0.704,-1.035 -1.052,-1.55 -0.655,-1.288 -1.298,-2.57 -1.922,-3.844 0.394,0.51 0.789,1.02 1.189,1.532 0.58,1.28 1.175,2.567 1.785,3.862"
           style="fill:#3f87cf;fill-opacity:1;fill-rule:nonzero;stroke:none"
           id="path845"
           inkscape:connector-curvature="0" /><path
           d="m 100.249,491.779 c -0.382,-0.871 -0.767,-1.743 -1.134,-2.606 0.511,0.451 1.023,0.901 1.541,1.351 0.343,0.877 0.705,1.764 1.063,2.649 -0.494,-0.465 -0.982,-0.929 -1.47,-1.394"
           style="fill:#3f87cf;fill-opacity:1;fill-rule:nonzero;stroke:none"
           id="path847"
           inkscape:connector-curvature="0" /><path
           d="m 103.539,498.97 c -0.378,-0.791 -0.744,-1.576 -1.108,-2.361 0.437,0.483 0.882,0.967 1.326,1.452 0.342,0.797 0.678,1.592 1.033,2.397 -0.423,-0.498 -0.836,-0.993 -1.251,-1.488"
           style="fill:#3f87cf;fill-opacity:1;fill-rule:nonzero;stroke:none"
           id="path849"
           inkscape:connector-curvature="0" /><path
           d="m 385.874,313.586 c 1.889,3.003 3.869,5.904 6.457,8.984 -1.65,-1.411 -3.164,-2.792 -4.514,-4.121 -4.321,-4.282 -9.716,-9.732 -11.454,-11.303 -0.841,-0.743 -2.239,-2.037 -3.759,-3.49 0.034,0.014 0.065,0.027 0.098,0.04 3.352,3.114 7.724,6.493 13.172,9.89"
           style="fill:#3f87cf;fill-opacity:1;fill-rule:nonzero;stroke:none"
           id="path851"
           inkscape:connector-curvature="0" /><path
           d="m 116.156,522.58 c 8.647,14.638 19.452,30.431 32.692,47.523 7.207,9.296 15.202,19.065 24.029,29.354 3.507,4.084 7.158,8.265 10.953,12.543 h -7.009 c -2.946,-3.771 -5.815,-7.473 -8.591,-11.094 -7.804,-10.178 -14.963,-19.837 -21.467,-29.036 -12.045,-17.029 -21.996,-32.722 -29.985,-47.264 -0.698,-1.272 -1.37,-2.53 -2.041,-3.787 -0.21,-0.591 -0.421,-1.183 -0.626,-1.769 0.674,1.173 1.345,2.346 2.045,3.53"
           style="fill:#3f87cf;fill-opacity:1;fill-rule:nonzero;stroke:none"
           id="path853"
           inkscape:connector-curvature="0" /><path
           d="m 137.03,136.82 c -0.192,-0.102 -0.367,-0.212 -0.548,-0.322 0.713,0.34 1.341,0.623 1.822,0.819 3.724,1.483 6.197,1.059 9.231,0.344 2.514,-0.564 3.314,0.894 -0.028,4.526 -0.127,-0.07 -0.254,-0.142 -0.375,-0.208 -2.219,-1.231 -7.585,-3.819 -10.102,-5.159"
           style="fill:#396aa6;fill-opacity:1;fill-rule:nonzero;stroke:none"
           id="path855"
           inkscape:connector-curvature="0" /><path
           d="m 92.217,483.837 c 1.037,1.066 2.091,2.135 3.166,3.205 0.203,0.362 0.406,0.724 0.613,1.086 -1.054,-1.086 -2.086,-2.17 -3.102,-3.252 -0.227,-0.347 -0.453,-0.692 -0.677,-1.039"
           style="fill:#396aa6;fill-opacity:1;fill-rule:nonzero;stroke:none"
           id="path857"
           inkscape:connector-curvature="0" /><path
           d="m 117.537,127.184 c -0.344,-0.173 -0.675,-0.354 -0.997,-0.542 1.545,-4.312 -0.88,-6.853 -4.002,-6.705 -0.545,0.029 -1.077,0.058 -1.6,0.084 -0.95,-2.852 -0.973,-6.427 0.138,-10.935 2.388,-9.509 8.457,-22.582 19.403,-40.456 C 141.441,50.771 157.399,28.08 180.676,0 h 59.014 c -38.061,35 -63.071,62.473 -79.627,83.061 -13.294,16.53 -21.22,28.67 -25.243,37.423 -3.818,8.503 -2.932,13.266 1.662,16.014 -2.153,-1.018 -5.082,-2.52 -7.085,-3.583 -2.546,-1.321 -8.758,-4.193 -11.86,-5.731"
           style="fill:#396aa6;fill-opacity:1;fill-rule:nonzero;stroke:none"
           id="path859"
           inkscape:connector-curvature="0" /><path
           d="m 90.938,482.773 c -0.601,-0.651 -1.198,-1.302 -1.784,-1.952 -0.25,-0.321 -0.497,-0.643 -0.744,-0.964 0.598,0.64 1.209,1.28 1.82,1.92 0.236,0.332 0.469,0.663 0.708,0.996"
           style="fill:#396aa6;fill-opacity:1;fill-rule:nonzero;stroke:none"
           id="path861"
           inkscape:connector-curvature="0" /><path
           d="m 83.842,474.755 c 0.598,0.705 1.204,1.41 1.818,2.118 -0.892,-0.981 -1.767,-1.96 -2.628,-2.936 0.028,0.027 0.054,0.056 0.082,0.084 0.239,0.245 0.487,0.49 0.728,0.734"
           style="fill:#396aa6;fill-opacity:1;fill-rule:nonzero;stroke:none"
           id="path863"
           inkscape:connector-curvature="0" /><path
           d="m 160.022,149.424 c -7.558,6.358 -19.097,15.869 -33.154,29.404 -18.007,17.399 -36.95,38.258 -53.403,63.132 -16.039,24.236 -29.064,51.618 -34.718,81.389 -3.041,16.017 -3.952,33.067 -1.869,50.603 2.161,18.086 7.642,37.441 17.56,57.092 5.732,11.351 13.089,23.126 22.393,35.1 1.762,2.267 3.607,4.554 5.53,6.856 -0.261,-0.247 -0.529,-0.495 -0.787,-0.741 -0.031,-0.03 -0.061,-0.059 -0.092,-0.089 -2.085,-2.404 -4.081,-4.793 -5.987,-7.161 C 65.839,453.01 58.172,441.186 52.164,429.772 41.789,410.057 35.892,390.577 33.341,372.341 c -2.46,-17.652 -1.914,-34.857 0.737,-51.064 4.946,-30.049 17.172,-57.852 32.303,-82.652 15.52,-25.371 33.463,-46.85 50.34,-64.988 13.14,-14.095 23.882,-24.138 30.447,-31.081 0.123,-0.128 0.227,-0.248 0.339,-0.369 2.344,1.301 5.749,3.15 7.243,3.737 3.143,1.233 5.173,0.611 7.713,-0.29 0.272,-0.103 0.503,-0.171 0.694,-0.211 -0.277,0.627 -0.476,1.21 -0.584,1.744 -0.601,0.594 -1.438,1.34 -2.551,2.257"
           style="fill:#396aa6;fill-opacity:1;fill-rule:nonzero;stroke:none"
           id="path865"
           inkscape:connector-curvature="0" /><path
           d="m 115.828,505.686 c 9.144,7.659 19.456,15.499 31.129,23.429 12.7,8.626 27.202,17.504 43.897,26.455 18.629,9.993 40.434,20.333 66.292,30.663 21.164,8.452 45.699,17.168 74.555,25.767 h -16.843 c -24.361,-8.18 -45.431,-16.333 -63.865,-24.217 -24.605,-10.524 -45.409,-20.962 -63.22,-31.012 -16.001,-9.024 -29.919,-17.929 -42.116,-26.57 -11.232,-7.954 -21.157,-15.799 -29.962,-23.451 -2.63,-2.287 -5.163,-4.566 -7.62,-6.837 -0.114,-0.411 -0.226,-0.82 -0.337,-1.229 2.606,2.327 5.296,4.661 8.09,7.002"
           style="fill:#396aa6;fill-opacity:1;fill-rule:nonzero;stroke:none"
           id="path867"
           inkscape:connector-curvature="0" /><path
           d="m 87.591,479.074 c -0.653,-0.735 -1.295,-1.469 -1.931,-2.201 0.397,0.437 0.799,0.875 1.204,1.314 0.242,0.295 0.482,0.591 0.727,0.887"
           style="fill:#396aa6;fill-opacity:1;fill-rule:nonzero;stroke:none"
           id="path869"
           inkscape:connector-curvature="0" /><path
           d="m 100.743,492.915 c -0.825,-0.814 -1.64,-1.627 -2.443,-2.438 -0.191,-0.376 -0.387,-0.754 -0.575,-1.129 0.83,0.809 1.672,1.619 2.524,2.431 0.488,0.465 0.976,0.929 1.47,1.394 1.009,0.947 2.035,1.897 3.073,2.848 0.134,0.4 0.274,0.803 0.411,1.203 -1.019,-0.966 -2.026,-1.93 -3.015,-2.892 -0.486,-0.474 -0.966,-0.946 -1.445,-1.417"
           style="fill:#396aa6;fill-opacity:1;fill-rule:nonzero;stroke:none"
           id="path871"
           inkscape:connector-curvature="0" /><path
           d="m 96.967,465.731 c -3.321,-19.06 -3.069,-36.697 0.141,-52.51 3.211,-15.807 9.452,-30.308 17.847,-43.193 16.156,-24.737 40.595,-44.412 69.048,-59.139 29.939,-15.46 62.823,-25.037 96.344,-28.988 26.53,-3.109 49.55,-2.738 70.101,3.036 1.171,0.328 2.332,0.716 3.49,1.13 2.113,0.759 4.194,1.639 6.208,2.63 9.494,4.681 17.555,11.597 21.028,17.223 0.673,1.083 1.309,2.128 1.93,3.15 -3.287,-2.055 -6.791,-3.894 -10.402,-5.374 -0.033,-0.013 -0.064,-0.026 -0.098,-0.04 -1.028,-0.42 -2.064,-0.818 -3.106,-1.176 -21.3,-7.228 -45.236,-8.935 -72.735,-7.169 -34.817,2.223 -68.94,10.387 -100.186,24.573 -29.7,13.512 -55.316,32.192 -72.646,56.232 -8.994,12.485 -15.83,26.654 -19.689,42.221 -3.838,15.523 -4.785,32.918 -2.333,51.875 0.966,7.446 2.469,15.226 4.494,23.34 -1.09,-0.844 -2.169,-1.686 -3.23,-2.528 -2.737,-8.798 -4.797,-17.231 -6.206,-25.293"
           style="fill:#ed4920;fill-opacity:1;fill-rule:nonzero;stroke:none"
           id="path873"
           inkscape:connector-curvature="0" /><path
           d="m 459.927,381.114 c 18.413,9.718 41.793,19.426 71.502,30.128 36.824,13.253 82.901,27.928 139.939,45.336 38.021,11.605 78.321,24.104 120.461,36.915 v 48.888 C 755.304,528.771 720.06,515.32 686.431,502.592 633.159,482.427 589.511,465.099 554.26,449.444 525.408,436.649 502.425,425.035 484.338,413.682 463.514,400.61 449.61,386.953 440.208,375.684 c -4.967,-5.954 -11.414,-13.595 -13.918,-16.351 -1.676,-1.821 -5.07,-5.584 -8.102,-9.072 9.03,9.458 22.477,20.628 41.739,30.853"
           style="fill:#ed4920;fill-opacity:1;fill-rule:nonzero;stroke:none"
           id="path875"
           inkscape:connector-curvature="0" /><path
           d="m 108.418,506.133 c 0.773,0.961 1.561,1.927 2.359,2.894 0.42,1.337 0.849,2.681 1.296,4.037 -0.718,-0.995 -1.426,-1.988 -2.12,-2.976 -0.528,-1.329 -1.036,-2.645 -1.535,-3.955"
           style="fill:#ed4920;fill-opacity:1;fill-rule:nonzero;stroke:none"
           id="path877"
           inkscape:connector-curvature="0" /><path
           d="m 383.104,309.07 c 4.879,3.054 9.256,6.57 12.741,10.088 2.541,2.562 4.621,5.12 6.049,7.487 1.121,1.848 2.16,3.612 3.18,5.331 2.993,5.038 5.842,9.68 10.197,14.876 0.872,1.044 1.873,2.211 2.917,3.409 -0.611,-0.637 -1.201,-1.268 -1.771,-1.891 -4.646,-5.134 -10.645,-11.694 -12.89,-13.902 -1.967,-1.975 -6.921,-7.092 -10.07,-10.588 -0.39,-0.441 -0.762,-0.877 -1.126,-1.31 -2.588,-3.08 -4.568,-5.981 -6.457,-8.984 -0.923,-1.468 -1.828,-2.963 -2.77,-4.516"
           style="fill:#ed4920;fill-opacity:1;fill-rule:nonzero;stroke:none"
           id="path879"
           inkscape:connector-curvature="0" /><path
           d="m 106.54,501.054 c 0.871,0.924 1.754,1.85 2.651,2.779 0.248,0.843 0.515,1.7 0.773,2.551 -0.855,-0.955 -1.699,-1.908 -2.529,-2.858 -0.306,-0.828 -0.6,-1.65 -0.895,-2.472"
           style="fill:#ed4920;fill-opacity:1;fill-rule:nonzero;stroke:none"
           id="path881"
           inkscape:connector-curvature="0" /><path
           d="m 135.658,563.146 c 4.69,8.494 9.778,17.38 15.192,26.716 4.114,7.099 8.416,14.467 12.806,22.138 h -10.935 c -2.527,-6.591 -5.183,-12.967 -7.832,-19.149 -3.912,-9.13 -7.794,-17.816 -11.458,-26.133 -3.549,-8.058 -6.89,-15.775 -9.948,-23.191 -2.713,-6.584 -5.193,-12.939 -7.447,-19.098 2.229,4.948 4.635,10.015 7.229,15.215 3.75,7.519 7.891,15.338 12.393,23.502"
           style="fill:#ed4920;fill-opacity:1;fill-rule:nonzero;stroke:none"
           id="path883"
           inkscape:connector-curvature="0" /><path
           d="m 105.203,497.224 c -0.137,-0.4 -0.277,-0.803 -0.411,-1.203 -0.304,-0.907 -0.596,-1.809 -0.886,-2.709 1.017,0.862 2.047,1.724 3.093,2.588 0.24,0.924 0.485,1.851 0.739,2.784 0.111,0.409 0.223,0.818 0.337,1.229 0.166,0.595 0.34,1.195 0.51,1.795 -0.944,-0.919 -1.875,-1.836 -2.792,-2.75 -0.202,-0.581 -0.394,-1.156 -0.59,-1.734"
           style="fill:#ed4920;fill-opacity:1;fill-rule:nonzero;stroke:none"
           id="path885"
           inkscape:connector-curvature="0" /><path
           d="m 111.108,512.957 c 0.645,1.022 1.299,2.047 1.968,3.079 0.34,1 0.681,2.003 1.035,3.014 0.205,0.586 0.416,1.178 0.626,1.769 0.425,1.196 0.856,2.398 1.299,3.61 -1.035,-2.298 -2.023,-4.563 -2.98,-6.807 -0.24,-0.564 -0.475,-1.125 -0.71,-1.685 -0.419,-0.998 -0.835,-1.994 -1.238,-2.98"
           style="fill:#ed4920;fill-opacity:1;fill-rule:nonzero;stroke:none"
           id="path887"
           inkscape:connector-curvature="0" /><path
           d="m 230.518,191.179 c 0.039,0.023 0.088,0.039 0.13,0.062 -0.205,-0.113 -0.291,-0.153 -0.13,-0.062 M 68.759,444.485 c -8.775,-19.794 -13.102,-38.981 -14.045,-56.687 -0.908,-17.25 1.328,-33.794 5.784,-49.106 8.384,-28.697 24.773,-54.29 44.686,-76.118 20.729,-22.688 44.39,-40.79 67.907,-54.822 18.614,-11.098 34.378,-18.284 47.145,-21.633 7.649,-2.033 13.477,0.092 13.425,1.999 -0.027,1.41 -0.254,2.465 -0.39,3.273 2.605,-0.336 6.98,-1.597 14.047,-3.889 10.906,-3.519 26.456,-9.275 48.762,-17.268 29.205,-10.509 69.85,-24.833 126.643,-42.255 40.234,-12.381 87.276,-25.767 141.775,-39.876 4.005,-1.043 8.057,-2.086 12.148,-3.137 24.454,-3.269 52.145,-6.682 83.443,-9.9 37.925,-3.88 81.636,-7.471 131.74,-9.954 v 75.407 c -51.924,5.82 -99.385,11.624 -142.609,17.347 -5.924,0.786 -11.766,1.568 -17.532,2.35 -25.041,3.374 -48.703,6.744 -71.041,10.07 -27.772,4.136 -53.494,8.202 -77.227,12.118 -60.933,10.132 -105.684,18.77 -138.612,24.909 -25.246,4.655 -43.38,7.825 -56.664,9.115 -13.205,1.287 -20.83,0.01 -23.61,-1.95 -1.261,-0.873 -1.752,-1.407 -1.56,-1.167 0.15,0.149 -0.487,-0.244 -1.133,-0.964 -1.461,-1.637 -1.345,-3.536 -2.171,-6.559 -0.757,-2.638 -8.231,-6.017 -16.944,-4.855 -14.373,1.942 -31.486,8.005 -51.612,17.866 -25.377,12.504 -50.743,29.271 -73.086,50.907 -21.407,20.733 -39.195,45.436 -48.861,73.568 -5.118,14.944 -8.021,31.182 -7.777,48.222 0.263,17.421 3.84,36.381 11.755,56.076 4.124,10.25 9.518,20.948 16.36,31.98 -0.715,-0.635 -1.43,-1.27 -2.129,-1.903 -7.755,-11.41 -13.892,-22.515 -18.617,-33.164"
           style="fill:#f4d109;fill-opacity:1;fill-rule:nonzero;stroke:none"
           id="path889"
           inkscape:connector-curvature="0" /><path
           d="m 96.631,490.409 c -1.121,-1.449 -2.207,-2.888 -3.269,-4.32 0.579,0.708 1.171,1.418 1.765,2.13 0.496,0.728 0.995,1.456 1.504,2.19"
           style="fill:#f4d109;fill-opacity:1;fill-rule:nonzero;stroke:none"
           id="path891"
           inkscape:connector-curvature="0" /><path
           d="m 105.939,503.006 c -0.4,-0.512 -0.795,-1.022 -1.189,-1.532 -0.695,-0.901 -1.381,-1.801 -2.055,-2.696 -0.452,-0.814 -0.896,-1.626 -1.333,-2.434 0.714,0.872 1.44,1.748 2.177,2.626 0.415,0.495 0.828,0.99 1.251,1.488 0.866,1.019 1.749,2.042 2.645,3.068 0.83,0.95 1.674,1.903 2.529,2.858 4.624,5.162 9.625,10.406 15.044,15.719 8.186,8.023 17.431,16.318 27.905,24.843 11.367,9.243 24.344,18.895 39.275,28.861 16.614,11.094 36.025,22.842 58.99,35.094 0.684,0.365 1.387,0.733 2.078,1.099 h -18.191 c -19.042,-11.758 -35.405,-22.974 -49.586,-33.568 -13.39,-10.002 -25.096,-19.631 -35.387,-28.84 -9.528,-8.533 -17.962,-16.807 -25.44,-24.795 -5.001,-5.342 -9.614,-10.6 -13.875,-15.77 -0.798,-0.967 -1.586,-1.933 -2.359,-2.894 -0.841,-1.047 -1.667,-2.088 -2.479,-3.127"
           style="fill:#f4d109;fill-opacity:1;fill-rule:nonzero;stroke:none"
           id="path893"
           inkscape:connector-curvature="0" /><path
           d="m 100.79,496.217 c -1.435,-1.951 -2.824,-3.888 -4.159,-5.808 0.881,1.137 1.785,2.281 2.703,3.428 0.478,0.79 0.963,1.584 1.456,2.38"
           style="fill:#f4d109;fill-opacity:1;fill-rule:nonzero;stroke:none"
           id="path895"
           inkscape:connector-curvature="0" /><path
           d="m 92.217,483.837 c 0.224,0.347 0.45,0.692 0.677,1.039 0.336,0.511 0.678,1.025 1.022,1.539 -0.627,-0.703 -1.252,-1.404 -1.862,-2.103 -0.375,-0.513 -0.75,-1.027 -1.116,-1.539 -0.239,-0.333 -0.472,-0.664 -0.708,-0.996 -0.404,-0.569 -0.811,-1.139 -1.206,-1.705 -0.128,-0.184 -0.247,-0.367 -0.375,-0.551 0.689,0.666 1.389,1.334 2.093,2.002 0.297,0.47 0.579,0.935 0.882,1.405 0.194,0.302 0.396,0.607 0.593,0.909"
           style="fill:#f4d109;fill-opacity:1;fill-rule:nonzero;stroke:none"
           id="path897"
           inkscape:connector-curvature="0" /><path
           d="m 342.331,275.995 c -3.038,-2.69 -6.63,-5.889 -7.824,-6.819 -0.518,-0.414 -1.849,-1.501 -3.278,-2.75 -1.044,-0.911 -2.141,-1.913 -3.015,-2.803 -1.834,-1.847 -3.078,-3.647 -4.214,-5.576 -0.352,-0.592 -0.692,-1.202 -1.038,-1.827 4.919,1.837 11.04,3.457 18.371,4.529 14.964,2.173 34.597,3.018 61.03,3.322 34.162,0.36 79.267,-0.279 138.82,-0.568 43.54,-0.208 91.98,0.087 144.921,0.935 33.386,0.505 68.67,1.228 105.725,2.098 v 72.059 c -22.514,-2.396 -44.396,-4.711 -65.602,-6.907 -51.324,-5.335 -98.899,-10.082 -142.216,-13.993 -59.978,-5.473 -106.272,-9.561 -141.918,-13.881 -27.843,-3.341 -48.915,-6.737 -65.205,-11.122 -7.029,-1.884 -13.105,-4.143 -18.27,-6.534 -3.11,-1.438 -5.885,-2.925 -8.327,-4.412 -3.223,-1.958 -5.882,-3.914 -7.96,-5.751"
           style="fill:#5ab5c8;fill-opacity:1;fill-rule:nonzero;stroke:none"
           id="path899"
           inkscape:connector-curvature="0" /><path
           d="m 232.684,248.268 c -29.643,8.742 -58.776,22.39 -84.739,41.398 -24.692,18.091 -45.482,40.653 -57.918,67.382 -6.535,14.066 -10.826,29.601 -11.995,46.168 -1.175,16.795 0.849,35.28 6.937,54.847 2.657,8.537 6.133,17.43 10.496,26.647 -0.858,-0.724 -1.712,-1.449 -2.55,-2.172 -5.186,-9.716 -9.335,-19.113 -12.531,-28.132 -6.96,-19.655 -9.722,-38.37 -9.212,-55.452 0.504,-16.782 4.172,-32.626 10.054,-47.081 11.169,-27.346 30.655,-50.843 53.944,-70.075 24.438,-20.166 52.038,-35.194 80.008,-45.577 22.329,-8.281 41.59,-12.771 58.384,-12.807 10.561,0 20.498,5.072 22.476,8.893 1.67,3.259 2.465,5.712 4.167,8.025 -1.72,-0.375 -3.479,-0.65 -5.248,-0.794 -18.123,-1.494 -38.611,1.752 -62.273,8.73"
           style="fill:#5ab5c8;fill-opacity:1;fill-rule:nonzero;stroke:none"
           id="path901"
           inkscape:connector-curvature="0" /><path
           d="m 97.994,491.596 c 0.702,0.812 1.415,1.626 2.137,2.443 0.404,0.765 0.814,1.534 1.231,2.305 0.437,0.808 0.881,1.62 1.333,2.434 0.688,1.241 1.391,2.489 2.114,3.744 -1.394,-2.122 -2.731,-4.222 -4.019,-6.305 -0.493,-0.796 -0.978,-1.59 -1.456,-2.38 -0.453,-0.749 -0.9,-1.496 -1.34,-2.241"
           style="fill:#5ab5c8;fill-opacity:1;fill-rule:nonzero;stroke:none"
           id="path903"
           inkscape:connector-curvature="0" /><path
           d="m 306.057,245.722 c -0.479,-0.332 -2.853,-2.11 -4.355,-3.65 -0.577,-0.577 -1.065,-1.155 -1.497,-1.74 9.499,2.064 17.823,7.236 20.182,11.288 0.989,1.665 1.792,3.18 2.575,4.6 -5.194,-1.937 -9.048,-4.115 -11.524,-6.144 -2.301,-1.917 -4.697,-3.923 -5.381,-4.354"
           style="fill:#5ab5c8;fill-opacity:1;fill-rule:nonzero;stroke:none"
           id="path905"
           inkscape:connector-curvature="0" /><path
           d="m 107.724,506.868 c 0.732,1.07 1.471,2.141 2.229,3.22 0.694,0.988 1.402,1.981 2.12,2.976 4.374,6.071 9.181,12.287 14.464,18.644 6.668,8.021 14.161,16.356 22.588,24.996 9.045,9.263 19.264,18.985 30.856,29.146 9.495,8.314 20.025,17.037 31.761,26.15 h -14.504 c -8.792,-8.126 -16.866,-15.93 -24.257,-23.401 -9.969,-10.081 -18.851,-19.697 -26.763,-28.861 -7.428,-8.6 -14.064,-16.88 -19.994,-24.835 -4.804,-6.45 -9.178,-12.74 -13.148,-18.867 -0.669,-1.032 -1.323,-2.057 -1.968,-3.079 -0.713,-1.128 -1.409,-2.249 -2.095,-3.366 -0.318,-0.52 -0.639,-1.04 -0.953,-1.558 -1.122,-1.853 -2.203,-3.689 -3.251,-5.511 0.61,0.929 1.232,1.861 1.863,2.796 0.348,0.515 0.699,1.033 1.052,1.55"
           style="fill:#5ab5c8;fill-opacity:1;fill-rule:nonzero;stroke:none"
           id="path907"
           inkscape:connector-curvature="0" /><path
           d="m 98.3,490.477 c 0.275,0.544 0.547,1.085 0.828,1.629 -0.761,-0.809 -1.513,-1.615 -2.254,-2.42 l -0.002,-0.004 c -0.301,-0.521 -0.581,-1.036 -0.876,-1.554 -0.207,-0.362 -0.41,-0.724 -0.613,-1.086 -0.462,-0.821 -0.927,-1.644 -1.373,-2.46 0.815,0.75 1.646,1.503 2.483,2.257 0.405,0.835 0.812,1.669 1.232,2.509 0.188,0.375 0.384,0.753 0.575,1.129"
           style="fill:#5ab5c8;fill-opacity:1;fill-rule:nonzero;stroke:none"
           id="path909"
           inkscape:connector-curvature="0" /><path
           d="m 85.121,476.044 c 0.522,0.524 1.052,1.048 1.584,1.573 0.561,0.746 1.129,1.492 1.705,2.24 0.247,0.321 0.494,0.643 0.744,0.964 0.108,0.139 0.213,0.279 0.322,0.417 0.271,0.347 0.552,0.699 0.828,1.047 -0.902,-1.052 -1.792,-2.102 -2.659,-3.145 -0.018,-0.022 -0.035,-0.044 -0.054,-0.066 -0.245,-0.296 -0.485,-0.592 -0.727,-0.887 -0.589,-0.715 -1.169,-1.429 -1.743,-2.143"
           style="fill:#e90b68;fill-opacity:1;fill-rule:nonzero;stroke:none"
           id="path911"
           inkscape:connector-curvature="0" /><path
           d="m 207.308,171.242 c -0.939,1.837 -1.797,3.1 -3.175,2.982 -0.428,-0.03 -2.38,-1.204 -3.535,-1.992 -0.4,-0.269 -0.903,-0.578 -1.429,-0.889 5.52,-1.923 8.742,-1.234 8.139,-0.101"
           style="fill:#e90b68;fill-opacity:1;fill-rule:nonzero;stroke:none"
           id="path913"
           inkscape:connector-curvature="0" /><path
           d="M 62.59,442.52 C 51.598,422.305 45.4,402.467 42.805,384.034 c -2.49,-17.777 -1.774,-35.02 1.22,-51.136 5.573,-29.891 19.083,-57.282 35.977,-81.276 17.469,-24.798 37.89,-45.443 57.839,-62.451 15.807,-13.462 29.153,-22.862 38.864,-28.897 0.807,-0.497 1.539,-0.924 2.212,-1.308 -0.285,-0.039 -0.582,-0.104 -0.896,-0.206 -1.046,-0.356 -4.042,-2.08 -5.688,-3.064 -1.93,-1.186 -5.899,-3.233 -7.602,-4.184 -1.819,-0.991 -2.564,-2.361 -2.158,-4.345 0.108,-0.534 0.307,-1.117 0.584,-1.744 0.746,-1.689 2.097,-3.732 4.099,-6.23 5.589,-7.018 15.272,-16.882 30.487,-30.427 C 217.731,91.049 247.322,67.043 291.5,36.48 308.081,25.049 326.493,12.871 346.854,0 h 35.289 c 1.088,0.764 2.177,1.528 3.265,2.298 C 386.521,1.577 387.75,0.81 389.081,0 H 533.21 c -17.784,7.012 -34.678,13.834 -50.714,20.447 -16.223,6.717 -31.635,13.274 -46.289,19.663 -30.888,13.462 -58.372,26.165 -82.738,37.964 -50.301,24.436 -85.176,43.939 -109.493,58.408 -18.544,10.982 -30.92,19.015 -39.001,24.439 -7.9,5.31 -11.159,7.277 -9.128,8.497 0.578,0.357 2.031,1.156 3.322,1.925 -0.69,0.239 -1.411,0.514 -2.171,0.842 -11.312,4.861 -25.915,13.37 -43.152,25.844 -21.707,15.74 -43.675,35.323 -62.642,59.262 -18.271,23.07 -33.052,49.739 -39.755,79.178 -3.598,15.802 -4.927,32.79 -3.034,50.39 1.972,18.186 7.472,37.83 17.679,57.957 5.069,9.989 11.412,20.353 19.242,30.963 -0.555,-0.511 -1.107,-1.021 -1.651,-1.531 C 75.12,463.403 68.17,452.774 62.59,442.52"
           style="fill:#e90b68;fill-opacity:1;fill-rule:nonzero;stroke:none"
           id="path915"
           inkscape:connector-curvature="0" /><path
           d="m 93.916,486.415 c 0.968,1.086 1.951,2.176 2.958,3.271 0.741,0.805 1.493,1.611 2.254,2.42 0.782,0.831 1.577,1.663 2.381,2.498 0.452,0.469 0.913,0.94 1.372,1.411 0.955,0.978 1.927,1.959 2.912,2.943 0.917,0.914 1.848,1.831 2.792,2.75 6.978,6.788 14.707,13.695 23.297,20.682 10.206,8.301 21.795,16.86 35.015,25.584 14.54,9.587 31.325,19.558 50.904,29.724 21.174,10.992 46.249,22.556 76.433,34.302 h -20.599 c -24.499,-11.082 -45.279,-21.832 -63.141,-32.045 -18.011,-10.299 -33.519,-20.319 -46.985,-29.927 -12.297,-8.77 -23.093,-17.339 -32.614,-25.63 -7.999,-6.966 -15.2,-13.831 -21.704,-20.565 -0.897,-0.929 -1.78,-1.855 -2.651,-2.779 -0.943,-1.001 -1.871,-1.999 -2.783,-2.993 -0.444,-0.485 -0.889,-0.969 -1.326,-1.452 -0.778,-0.859 -1.545,-1.716 -2.3,-2.57 -0.722,-0.817 -1.435,-1.631 -2.137,-2.443 -0.977,-1.131 -1.929,-2.256 -2.867,-3.377 -0.594,-0.712 -1.186,-1.422 -1.765,-2.13 -1.046,-1.274 -2.062,-2.542 -3.058,-3.804 0.578,0.674 1.157,1.349 1.75,2.027 0.61,0.699 1.235,1.4 1.862,2.103"
           style="fill:#e90b68;fill-opacity:1;fill-rule:nonzero;stroke:none"
           id="path917"
           inkscape:connector-curvature="0" /><path
           d="m 88.466,113.857 c -0.235,-0.106 -0.46,-0.207 -0.67,-0.302 -3.583,-1.659 -11.321,-4.774 -15.649,-6.553 -1.811,-0.734 -3.521,-1.591 -5.118,-2.567 5.002,1.257 8.863,1.153 13.383,1.204 4.285,0.021 8.318,3.262 8.054,8.218"
           style="fill:#b71b39;fill-opacity:1;fill-rule:nonzero;stroke:none"
           id="path919"
           inkscape:connector-curvature="0" /><path
           d="m 59.628,44.323 c -4.649,19.125 -5.881,32.977 -4.185,43.073 1.401,8.069 5.686,13.435 11.586,17.039 -0.805,-0.203 -1.637,-0.434 -2.509,-0.715 C 60.877,102.541 53.843,99.782 50.109,98.307 45.819,96.623 36.727,93.459 31.299,91.591 20.943,88.009 11.799,81.99 6.916,70.934 2.249,60.337 -0.059,45.603 0.001,25.159 0.022,17.591 0.37,9.228 1.131,0 H 73.674 C 67.156,17.21 62.657,31.895 59.628,44.323"
           style="fill:#b71b39;fill-opacity:1;fill-rule:nonzero;stroke:none"
           id="path921"
           inkscape:connector-curvature="0" /><path
           d="m 110.938,120.021 c 0.523,-0.026 1.055,-0.055 1.6,-0.084 3.122,-0.148 5.547,2.393 4.002,6.705 -0.193,0.538 -0.437,1.098 -0.76,1.687 -4.774,8.923 -14.235,20.842 -25.654,36.929 -14.513,20.466 -30.154,44.018 -43.132,71.134 -12.668,26.553 -22.369,55.931 -24.497,87.096 -1.155,17.005 -0.056,34.979 4.267,53.269 4.523,19.153 12.825,39.568 26.206,60.06 7.113,10.883 15.865,22.117 26.572,33.478 -12.324,-12.003 -22.351,-23.937 -30.486,-35.503 -14.491,-20.627 -23.767,-41.3 -29.197,-60.766 -5.161,-18.523 -7.096,-36.808 -6.81,-54.196 0.56,-31.694 8.485,-61.911 19.218,-89.517 10.906,-28.054 24.357,-52.782 36.339,-74.615 9.408,-17.104 17.033,-30.044 19.581,-39.975 0.165,-0.646 0.247,-1.267 0.279,-1.866 3.215,1.452 8.53,3.846 11.219,4.808 4.459,1.552 7.672,1.538 11.253,1.356"
           style="fill:#b71b39;fill-opacity:1;fill-rule:nonzero;stroke:none"
           id="path923"
           inkscape:connector-curvature="0" /><path
           d="m 81.574,472.259 c 0.258,0.246 0.526,0.494 0.787,0.741 0.438,0.415 0.879,0.831 1.324,1.248 0.544,0.51 1.096,1.02 1.651,1.531 0.676,0.623 1.35,1.246 2.04,1.87 0.699,0.633 1.414,1.268 2.129,1.903 1.119,0.993 2.253,1.989 3.41,2.986 0.838,0.723 1.692,1.448 2.55,2.172 0.905,0.764 1.822,1.528 2.75,2.294 0.535,0.441 1.062,0.882 1.604,1.325 1.102,0.897 2.221,1.796 3.354,2.695 1.061,0.842 2.14,1.684 3.23,2.528 9.479,7.336 20.062,14.736 31.914,22.11 13.248,8.239 28.355,16.613 45.703,24.905 19.324,9.235 41.888,18.591 68.574,27.568 30.958,10.404 68.776,20.784 116.15,29.477 27.945,5.137 60.058,9.812 97.348,13.415 3.458,0.333 6.977,0.657 10.549,0.973 h -92.4 c -13.736,-2.79 -26.571,-5.662 -38.585,-8.571 -42.338,-10.261 -76.446,-21.42 -104.567,-32.323 -24.399,-9.464 -45.108,-19.087 -62.904,-28.481 -16.036,-8.463 -30.019,-16.927 -42.303,-25.205 -10.692,-7.209 -20.273,-14.406 -28.883,-21.52 -1.046,-0.864 -2.076,-1.726 -3.093,-2.588 -1.1,-0.931 -2.183,-1.86 -3.25,-2.788 -0.518,-0.45 -1.03,-0.9 -1.541,-1.351 -0.884,-0.779 -1.761,-1.557 -2.622,-2.334 -0.837,-0.754 -1.668,-1.507 -2.483,-2.257 -1.111,-1.022 -2.196,-2.041 -3.268,-3.059 -0.704,-0.668 -1.404,-1.336 -2.093,-2.002 -0.657,-0.636 -1.301,-1.27 -1.944,-1.904 -0.532,-0.525 -1.062,-1.049 -1.584,-1.573 -0.43,-0.43 -0.855,-0.859 -1.279,-1.289 -0.241,-0.244 -0.489,-0.489 -0.728,-0.734 -0.028,-0.028 -0.054,-0.057 -0.082,-0.084 -1.189,-1.216 -2.347,-2.43 -3.49,-3.642 0.641,0.624 1.286,1.25 1.94,1.875 0.031,0.03 0.061,0.059 0.092,0.089"
           style="fill:#b71b39;fill-opacity:1;fill-rule:nonzero;stroke:none"
           id="path925"
           inkscape:connector-curvature="0" /></g></g></g></svg>