<?xml version="1.0" encoding="UTF-8" standalone="no"?>
<!-- Created with Inkscape (http://www.inkscape.org/) -->

<svg
   xmlns:dc="http://purl.org/dc/elements/1.1/"
   xmlns:cc="http://creativecommons.org/ns#"
   xmlns:rdf="http://www.w3.org/1999/02/22-rdf-syntax-ns#"
   xmlns:svg="http://www.w3.org/2000/svg"
   xmlns="http://www.w3.org/2000/svg"
   xmlns:sodipodi="http://sodipodi.sourceforge.net/DTD/sodipodi-0.dtd"
   xmlns:inkscape="http://www.inkscape.org/namespaces/inkscape"
   version="1.1"
   id="svg5248"
   xml:space="preserve"
   width="800"
   height="800"
   viewBox="0 0 800 800"
   sodipodi:docname="abstract-modern-graphic-publicdomainvectors.org.svg"
   inkscape:version="0.92.4 (5da689c313, 2019-01-14)"><metadata
     id="metadata5254"><rdf:RDF><cc:Work
         rdf:about=""><dc:format>image/svg+xml</dc:format><dc:type
           rdf:resource="http://purl.org/dc/dcmitype/StillImage" /><dc:title></dc:title></cc:Work></rdf:RDF></metadata><defs
     id="defs5252"><clipPath
       clipPathUnits="userSpaceOnUse"
       id="clipPath5264"><path
         d="M 0,600 H 600 V 0 H 0 Z"
         id="path5262"
         inkscape:connector-curvature="0" /></clipPath><clipPath
       clipPathUnits="userSpaceOnUse"
       id="clipPath5272"><path
         d="m 396.151,320.884 h 59.874 v -26.427 h -59.874 z"
         id="path5270"
         inkscape:connector-curvature="0" /></clipPath><clipPath
       clipPathUnits="userSpaceOnUse"
       id="clipPath5286"><path
         d="M 341.969,239.373 H 474.523 V 169.732 H 341.969 Z"
         id="path5284"
         inkscape:connector-curvature="0" /></clipPath><clipPath
       clipPathUnits="userSpaceOnUse"
       id="clipPath5300"><path
         d="M 176.122,253.363 H 421.883 V 142.021 H 176.122 Z"
         id="path5298"
         inkscape:connector-curvature="0" /></clipPath><clipPath
       clipPathUnits="userSpaceOnUse"
       id="clipPath5314"><path
         d="M 343.542,334.583 H 547.959 V 241.108 H 343.542 Z"
         id="path5312"
         inkscape:connector-curvature="0" /></clipPath><clipPath
       clipPathUnits="userSpaceOnUse"
       id="clipPath5328"><path
         d="M 29.3809,285.491 H 462.842 V 104.539 H 29.3809 Z"
         id="path5326"
         inkscape:connector-curvature="0" /></clipPath><clipPath
       clipPathUnits="userSpaceOnUse"
       id="clipPath5342"><path
         d="M 0.105469,320.543 H 478.552 V 139.856 H 0.105469 Z"
         id="path5340"
         inkscape:connector-curvature="0" /></clipPath><clipPath
       clipPathUnits="userSpaceOnUse"
       id="clipPath5356"><path
         d="M 0.105469,334.755 H 486.517 V 159.392 H 0.105469 Z"
         id="path5354"
         inkscape:connector-curvature="0" /></clipPath><clipPath
       clipPathUnits="userSpaceOnUse"
       id="clipPath5370"><path
         d="M 0.105469,360.792 H 517.179 V 188.207 H 0.105469 Z"
         id="path5368"
         inkscape:connector-curvature="0" /></clipPath><clipPath
       clipPathUnits="userSpaceOnUse"
       id="clipPath5384"><path
         d="M 403.765,504.531 H 533.38 V 356.917 H 403.765 Z"
         id="path5382"
         inkscape:connector-curvature="0" /></clipPath><clipPath
       clipPathUnits="userSpaceOnUse"
       id="clipPath5398"><path
         d="m 426.001,470.423 h 84.141 v -131.18 h -84.141 z"
         id="path5396"
         inkscape:connector-curvature="0" /></clipPath><clipPath
       clipPathUnits="userSpaceOnUse"
       id="clipPath5412"><path
         d="M 79.3403,388.655 H 492.269 V 277.59 H 79.3403 Z"
         id="path5410"
         inkscape:connector-curvature="0" /></clipPath><clipPath
       clipPathUnits="userSpaceOnUse"
       id="clipPath5426"><path
         d="M 0.105469,149.107 H 285.515 V -1.5752 H 0.105469 Z"
         id="path5424"
         inkscape:connector-curvature="0" /></clipPath><clipPath
       clipPathUnits="userSpaceOnUse"
       id="clipPath5440"><path
         d="M 0.105469,303.688 H 495.689 V 95.7012 H 0.105469 Z"
         id="path5438"
         inkscape:connector-curvature="0" /></clipPath><clipPath
       clipPathUnits="userSpaceOnUse"
       id="clipPath5454"><path
         d="M 88.9966,449.302 H 597.041 V 4.80762 H 88.9966 Z"
         id="path5452"
         inkscape:connector-curvature="0" /></clipPath><clipPath
       clipPathUnits="userSpaceOnUse"
       id="clipPath5468"><path
         d="M 206.823,210.376 H 509.621 V 36.1621 H 206.823 Z"
         id="path5466"
         inkscape:connector-curvature="0" /></clipPath><clipPath
       clipPathUnits="userSpaceOnUse"
       id="clipPath5482"><path
         d="M 0.105469,260.531 H 196.678 V 182.734 H 0.105469 Z"
         id="path5480"
         inkscape:connector-curvature="0" /></clipPath><clipPath
       clipPathUnits="userSpaceOnUse"
       id="clipPath5496"><path
         d="M 171.843,395.875 H 538.754 V 197.616 H 171.843 Z"
         id="path5494"
         inkscape:connector-curvature="0" /></clipPath><clipPath
       clipPathUnits="userSpaceOnUse"
       id="clipPath5510"><path
         d="M 0.105469,374.062 H 504.054 V 221.525 H 0.105469 Z"
         id="path5508"
         inkscape:connector-curvature="0" /></clipPath><clipPath
       clipPathUnits="userSpaceOnUse"
       id="clipPath5524"><path
         d="M 0.105469,387.605 H 558.006 V 77.6055 H 0.105469 Z"
         id="path5522"
         inkscape:connector-curvature="0" /></clipPath><clipPath
       clipPathUnits="userSpaceOnUse"
       id="clipPath5538"><path
         d="M 0.105469,442.36 H 573.384 V 30.7139 H 0.105469 Z"
         id="path5536"
         inkscape:connector-curvature="0" /></clipPath></defs><sodipodi:namedview
     pagecolor="#ffffff"
     bordercolor="#666666"
     borderopacity="1"
     objecttolerance="10"
     gridtolerance="10"
     guidetolerance="10"
     inkscape:pageopacity="0"
     inkscape:pageshadow="2"
     inkscape:window-width="1920"
     inkscape:window-height="1018"
     id="namedview5250"
     showgrid="false"
     inkscape:zoom="0.89448214"
     inkscape:cx="445.76271"
     inkscape:cy="406.77966"
     inkscape:window-x="-8"
     inkscape:window-y="-8"
     inkscape:window-maximized="1"
     inkscape:current-layer="g5256" /><g
     id="g5256"
     inkscape:groupmode="layer"
     inkscape:label="abstract-modern-graphic-publicdomainvectors.org"
     transform="matrix(1.3333333,0,0,-1.3333333,0,800)"><g
       id="g5258"><g
         id="g5260"
         clip-path="url(#clipPath5264)"><g
           id="g5266"><g
             id="g5268" /><g
             id="g5278"><g
               clip-path="url(#clipPath5272)"
               id="g5276"><path
                 d="m 401.912,294.457 c -1.933,3.014 -3.836,6.038 -5.761,9.036 19.079,6.105 37.169,11.894 54.35,17.391 1.833,-2.758 3.678,-5.519 5.524,-8.287 -17.102,-5.731 -35.114,-11.769 -54.113,-18.14"
                 style="fill:#00adef;fill-opacity:1;fill-rule:nonzero;stroke:none"
                 id="path5274"
                 inkscape:connector-curvature="0" /></g></g></g><g
           id="g5280"><g
             id="g5282" /><g
             id="g5292"><g
               clip-path="url(#clipPath5286)"
               id="g5290"><path
                 d="m 349.182,169.732 c -2.414,4.14 -4.817,8.268 -7.213,12.379 47.11,21.415 88.811,40.361 125.98,57.262 2.187,-3.357 4.376,-6.728 6.574,-10.106 -36.959,-17.559 -78.447,-37.259 -125.341,-59.535"
                 style="fill:#fcd9ee;fill-opacity:1;fill-rule:nonzero;stroke:none"
                 id="path5288"
                 inkscape:connector-curvature="0" /></g></g></g><g
           id="g5294"><g
             id="g5296" /><g
             id="g5306"><g
               clip-path="url(#clipPath5300)"
               id="g5304"><path
                 d="m 184.21,142.021 c -2.708,5.326 -5.406,10.631 -8.088,15.913 50.44,20.172 95.734,38.298 136.639,54.656 37.12,14.849 70.96,28.384 101.931,40.773 2.392,-3.781 4.788,-7.576 7.191,-11.384 C 391.072,229.018 357.396,214.857 320.435,199.313 279.683,182.174 234.526,163.182 184.21,142.021"
                 style="fill:#fbc6e5;fill-opacity:1;fill-rule:nonzero;stroke:none"
                 id="path5302"
                 inkscape:connector-curvature="0" /></g></g></g><g
           id="g5308"><g
             id="g5310" /><g
             id="g5320"><g
               clip-path="url(#clipPath5314)"
               id="g5318"><path
                 d="m 351.406,241.108 c -2.633,4.375 -5.252,8.736 -7.864,13.078 43.989,15.925 83.232,30.132 118.46,42.889 16.294,5.901 31.797,11.514 46.563,16.859 7.124,2.575 14.082,5.097 20.878,7.56 6.659,1.756 9.637,6.002 10.128,13.089 2.797,-2.126 5.597,-4.244 8.388,-6.363 -0.44,-18.877 -20.185,-17.313 -32.49,-24.291 -14.663,-5.618 -30.06,-11.515 -46.254,-17.711 -35.011,-13.405 -74.039,-28.349 -117.809,-45.11"
                 style="fill:#bfeafb;fill-opacity:1;fill-rule:nonzero;stroke:none"
                 id="path5316"
                 inkscape:connector-curvature="0" /></g></g></g><g
           id="g5322"><g
             id="g5324" /><g
             id="g5334"><g
               clip-path="url(#clipPath5328)"
               id="g5332"><path
                 d="m 38.666,104.539 c -3.119,7.044 -6.204,14.053 -9.285,21.016 55.357,20.807 105.348,39.59 150.712,56.632 41.353,15.542 79.201,29.764 113.976,42.829 61.71,23.185 114.794,43.132 160.938,60.475 2.604,-3.954 5.211,-7.926 7.835,-11.905 C 416.989,255.315 364.204,234.276 302.787,209.799 268.15,195.992 230.429,180.964 189.191,164.528 143.922,146.486 94,126.588 38.666,104.539"
                 style="fill:#f89fd4;fill-opacity:1;fill-rule:nonzero;stroke:none"
                 id="path5330"
                 inkscape:connector-curvature="0" /></g></g></g><g
           id="g5336"><g
             id="g5338" /><g
             id="g5348"><g
               clip-path="url(#clipPath5342)"
               id="g5346"><path
                 d="m 0.105,165.043 c 54.728,18.087 104.275,34.466 149.355,49.361 50.659,16.743 96.265,31.816 137.542,45.457 71.818,23.737 132.177,43.681 183.611,60.682 2.636,-3.906 5.275,-7.831 7.939,-11.757 C 427.465,290.75 367.461,269.561 295.991,244.327 254.875,229.807 209.413,213.757 158.875,195.916 111.273,179.106 58.634,160.521 0.105,139.856 Z"
                 style="fill:#00adef;fill-opacity:1;fill-rule:nonzero;stroke:none"
                 id="path5344"
                 inkscape:connector-curvature="0" /></g></g></g><g
           id="g5350"><g
             id="g5352" /><g
             id="g5362"><g
               clip-path="url(#clipPath5356)"
               id="g5360"><path
                 d="m 0.105,185.523 c 32.189,10.049 62.561,19.528 91.268,28.486 64.717,20.203 121.743,38 172.366,53.802 45.246,14.12 85.923,26.816 122.696,38.295 33.4,10.424 63.874,19.938 91.79,28.649 2.758,-4.029 5.521,-8.078 8.292,-12.143 -27.706,-9.297 -57.97,-19.448 -91.157,-30.588 C 358.804,279.757 318.334,266.179 273.292,251.063 222.85,234.138 165.982,215.055 101.372,193.372 69.73,182.756 36.045,171.452 0.105,159.392 Z"
                 style="fill:#f579c3;fill-opacity:1;fill-rule:nonzero;stroke:none"
                 id="path5358"
                 inkscape:connector-curvature="0" /></g></g></g><g
           id="g5364"><g
             id="g5366" /><g
             id="g5376"><g
               clip-path="url(#clipPath5370)"
               id="g5374"><path
                 d="m 0.105,214.764 c 23.073,6.596 45.191,12.921 66.414,18.99 39.048,11.163 75.291,21.525 109.022,31.169 60.901,17.412 114.391,32.706 161.743,46.243 42.213,12.068 80.082,22.895 114.241,32.662 15.858,4.534 30.972,8.858 45.399,12.981 2.825,0.843 8.471,2.342 8.905,2.623 0.161,0.068 0.308,0.205 0.308,0.205 0.17,0.161 0.035,0.78 -0.104,1.155 3.341,-1.076 6.667,-2.138 9.977,-3.192 1.231,-3.142 1.561,-6.208 0.643,-7.992 -0.448,-0.909 -1.13,-1.562 -2.083,-1.961 -1.159,-0.558 -6.223,-1.986 -9.192,-2.947 -14.31,-4.434 -29.306,-9.077 -45.042,-13.95 C 426.424,320.245 388.803,308.595 346.84,295.598 299.726,281.007 246.464,264.51 185.755,245.706 152.102,235.285 115.925,224.077 76.923,211.998 52.541,204.446 26.966,196.526 0.105,188.207 Z"
                 style="fill:#f466ba;fill-opacity:1;fill-rule:nonzero;stroke:none"
                 id="path5372"
                 inkscape:connector-curvature="0" /></g></g></g><g
           id="g5378"><g
             id="g5380" /><g
             id="g5390"><g
               clip-path="url(#clipPath5384)"
               id="g5388"><path
                 d="m 533.38,356.917 c -2.095,0.313 -4.198,0.636 -6.314,0.946 -1.343,2.603 -2.937,5.228 -4.753,7.834 -2.431,3.493 -5.676,7.983 -8.453,11.905 -5.746,8.056 -11.428,16.068 -17.097,24.002 -11.179,15.725 -22.222,31.205 -33.104,46.471 -5.378,7.553 -10.715,15.055 -16.026,22.499 -4.179,6.03 -7.565,9.605 -12.209,13.877 -9.029,7.984 -19.422,12.958 -26.403,12.581 -1.757,2.498 -3.507,4.994 -5.256,7.48 8.977,0.413 22.328,-6.031 33.82,-16.225 5.789,-5.221 10.654,-10.567 15.261,-17.221 5.277,-7.39 10.609,-14.821 15.955,-22.316 10.833,-15.138 21.81,-30.5 32.948,-46.081 10.249,-14.962 25.208,-33.871 31.631,-45.752"
                 style="fill:#ec008c;fill-opacity:1;fill-rule:nonzero;stroke:none"
                 id="path5386"
                 inkscape:connector-curvature="0" /></g></g></g><g
           id="g5392"><g
             id="g5394" /><g
             id="g5404"><g
               clip-path="url(#clipPath5398)"
               id="g5402"><path
                 d="m 454.857,339.243 c -2.267,3.37 -4.529,6.733 -6.791,10.077 15.895,4.39 31.05,8.576 45.514,12.572 1.762,0.484 3.514,0.969 5.257,1.451 1.522,0.403 4.276,1.194 3.347,0.99 -0.182,-0.063 -0.386,-0.253 -0.469,-0.494 -0.15,-0.522 -0.188,-0.917 0.095,-1.712 0.149,-0.378 0.379,-0.863 0.616,-1.185 0.871,-1.28 -0.858,1.327 -3.197,4.594 -1.968,2.802 -3.931,5.602 -5.89,8.39 -7.775,11.094 -15.486,22.068 -23.113,32.935 -15.032,21.418 -29.767,42.419 -44.225,63.01 2.002,0.182 3.993,0.368 5.973,0.552 14.38,-20.41 29.049,-41.216 44.005,-62.431 7.585,-10.768 15.253,-21.639 22.994,-32.619 1.945,-2.766 3.904,-5.53 5.858,-8.31 2.253,-3.159 4.023,-5.771 3.657,-5.253 0.481,-0.77 0.846,-1.429 1.108,-2.13 0.569,-1.361 0.739,-2.861 0.291,-3.591 -0.202,-0.388 -0.495,-0.646 -0.927,-0.839 -0.417,-0.289 -6.051,-1.828 -8.862,-2.694 -14.375,-4.23 -29.438,-8.663 -45.241,-13.313"
                 style="fill:#00adef;fill-opacity:1;fill-rule:nonzero;stroke:none"
                 id="path5400"
                 inkscape:connector-curvature="0" /></g></g></g><g
           id="g5406"><g
             id="g5408" /><g
             id="g5418"><g
               clip-path="url(#clipPath5412)"
               id="g5416"><path
                 d="m 88.162,277.59 c -2.952,5.955 -5.893,11.879 -8.822,17.77 53.714,12.351 102.134,23.488 146.001,33.576 39.932,9.183 76.436,17.579 109.932,25.282 30.848,7.093 59.347,13.647 85.755,19.721 12.494,2.872 24.544,5.644 36.177,8.318 5.666,1.304 11.233,2.584 16.709,3.843 2.704,0.622 5.384,1.243 8.042,1.85 0.791,0.206 3.804,0.837 2.771,0.68 -0.748,-0.173 -1.364,-0.532 -2.063,-0.844 2.736,-3.325 5.484,-6.654 8.227,-9.996 0.422,0.177 0.842,0.361 1.262,0.54 0.711,0.086 -2.054,-0.536 -2.912,-0.773 -2.638,-0.656 -5.3,-1.321 -7.987,-1.99 -5.439,-1.356 -10.971,-2.732 -16.6,-4.137 -11.557,-2.882 -23.533,-5.866 -35.949,-8.962 -26.261,-6.544 -54.608,-13.609 -85.304,-21.261 -33.35,-8.311 -69.712,-17.375 -109.514,-27.295 -43.75,-10.907 -92.074,-22.949 -145.725,-36.322"
                 style="fill:#f68ccb;fill-opacity:1;fill-rule:nonzero;stroke:none"
                 id="path5414"
                 inkscape:connector-curvature="0" /></g></g></g><g
           id="g5420"><g
             id="g5422" /><g
             id="g5432"><g
               clip-path="url(#clipPath5426)"
               id="g5430"><path
                 d="M 0.105,-1.575 V 23.38 c 29.33,13.417 57.136,26.139 83.534,38.221 72.744,33.279 135.907,62.178 191.261,87.506 3.517,-6.435 7.056,-12.903 10.615,-19.406 C 230.394,102.87 167.427,72.227 94.82,36.879 69.797,24.701 43.499,11.899 15.821,-1.575 Z"
                 style="fill:#ec008c;fill-opacity:1;fill-rule:nonzero;stroke:none"
                 id="path5428"
                 inkscape:connector-curvature="0" /></g></g></g><g
           id="g5434"><g
             id="g5436" /><g
             id="g5446"><g
               clip-path="url(#clipPath5440)"
               id="g5444"><path
                 d="m 0.105,125.757 c 41.891,15.318 80.731,29.524 116.848,42.733 37.661,13.773 72.586,26.542 105.057,38.423 58.559,21.416 109.914,40.197 155.312,56.802 40.426,14.785 76.655,28.031 109.304,39.973 3.01,-4.443 6.028,-8.906 9.063,-13.383 C 463.313,277.589 427.364,263.475 387.22,247.711 342.098,229.996 291.014,209.937 232.708,187.038 200.343,174.331 165.516,160.655 127.933,145.896 88.713,130.499 46.244,113.824 0.105,95.701 Z"
                 style="fill:#ec008c;fill-opacity:1;fill-rule:nonzero;stroke:none"
                 id="path5442"
                 inkscape:connector-curvature="0" /></g></g></g><g
           id="g5448"><g
             id="g5450" /><g
             id="g5460"><g
               clip-path="url(#clipPath5454)"
               id="g5458"><path
                 d="m 101.743,4.808 c -4.285,9.527 -8.534,18.984 -12.746,28.376 48.46,23.629 92.551,45.129 132.834,64.772 36.951,18.023 70.972,34.606 102.39,49.924 56.148,27.374 104.849,51.128 147.501,71.922 19.398,9.455 37.661,18.353 54.882,26.761 8.251,4.015 16.268,7.938 24.072,11.739 3.82,1.866 7.593,3.702 11.313,5.516 1.841,0.899 3.671,1.791 5.49,2.676 0.915,0.453 1.775,0.854 2.733,1.338 1.577,0.99 3.14,1.981 4.699,2.953 11.368,8.819 13.921,27.405 7.82,49.417 -2.891,10.625 -7.765,22.15 -14.213,33.665 -6.094,11.19 -15.786,24.274 -18.389,27.773 -16.57,22.708 -32.811,44.944 -48.722,66.731 2.25,0.314 4.486,0.622 6.704,0.931 15.802,-21.538 31.93,-43.514 48.382,-65.95 2.11,-2.826 13.302,-17.833 20.213,-30.429 7.357,-13.019 12.966,-26.079 16.369,-38.152 7.194,-25.115 4.648,-46.585 -8.015,-57.023 -1.675,-1.255 -3.433,-2.435 -5.272,-3.52 -0.97,-0.514 -1.798,-0.947 -2.71,-1.421 -1.793,-0.946 -3.605,-1.881 -5.424,-2.83 -3.68,-1.914 -7.406,-3.864 -11.184,-5.835 -7.717,-4.024 -15.647,-8.166 -23.807,-12.422 -17.04,-8.891 -35.115,-18.319 -54.318,-28.339 -42.26,-22.045 -90.562,-47.249 -146.31,-76.336 C 304.813,110.751 270.976,93.107 234.201,73.915 194.068,52.983 150.111,30.042 101.743,4.808"
                 style="fill:#f253b1;fill-opacity:1;fill-rule:nonzero;stroke:none"
                 id="path5456"
                 inkscape:connector-curvature="0" /></g></g></g><g
           id="g5462"><g
             id="g5464" /><g
             id="g5474"><g
               clip-path="url(#clipPath5468)"
               id="g5472"><path
                 d="m 216.209,36.162 c -3.148,6.287 -6.272,12.551 -9.386,18.78 67.405,35.524 125.503,66.127 176.09,92.783 44.448,23.42 83.811,44.152 118.908,62.651 2.595,-3.942 5.191,-7.903 7.8,-11.872 C 474.786,179.228 435.694,157.602 391.524,133.16 341.215,105.318 283.383,73.32 216.209,36.162"
                 style="fill:#8d198f;fill-opacity:1;fill-rule:nonzero;stroke:none"
                 id="path5470"
                 inkscape:connector-curvature="0" /></g></g></g><g
           id="g5476"><g
             id="g5478" /><g
             id="g5488"><g
               clip-path="url(#clipPath5482)"
               id="g5486"><path
                 d="m 0.105,205.155 c 17.412,5.129 34.269,10.094 50.597,14.903 50.12,14.763 95.737,28.196 137.424,40.473 2.837,-5.292 5.688,-10.609 8.552,-15.951 C 155.077,231.494 109.529,217.159 59.443,201.402 40.403,195.413 20.639,189.194 0.105,182.734 Z"
                 style="fill:#f89fd4;fill-opacity:1;fill-rule:nonzero;stroke:none"
                 id="path5484"
                 inkscape:connector-curvature="0" /></g></g></g><g
           id="g5490"><g
             id="g5492" /><g
             id="g5502"><g
               clip-path="url(#clipPath5496)"
               id="g5500"><path
                 d="m 181.92,197.616 c -3.376,6.504 -6.736,12.971 -10.077,19.405 56.195,18.857 106.07,35.592 150.637,50.547 40.064,13.442 76.269,25.594 109.155,36.627 29.999,10.068 57.474,19.285 82.731,27.762 2.947,1.001 6.157,2.037 8.802,2.982 1.638,0.581 2.84,1.658 3.787,2.987 1.777,2.726 2.051,7.035 0.725,12.069 -1.318,5.057 -3.937,10.305 -8.011,16.07 -6.771,9.527 -13.482,18.972 -20.149,28.328 2.204,0.5 4.39,0.992 6.56,1.482 6.614,-9.256 13.287,-18.588 20.015,-28.001 5.527,-7.729 9.48,-15.553 11.382,-22.648 1.942,-7.184 1.666,-13.372 -0.806,-17.379 -2.063,-4.16 -7.881,-5.201 -14.118,-7.612 -25.051,-9.021 -52.314,-18.832 -82.091,-29.549 C 407.799,278.93 371.814,265.972 331.975,251.631 287.621,235.663 237.941,217.788 181.92,197.616"
                 style="fill:#00adef;fill-opacity:1;fill-rule:nonzero;stroke:none"
                 id="path5498"
                 inkscape:connector-curvature="0" /></g></g></g><g
           id="g5504"><g
             id="g5506" /><g
             id="g5516"><g
               clip-path="url(#clipPath5510)"
               id="g5514"><path
                 d="m 0.105,246.845 c 34.962,8.989 67.781,17.427 98.651,25.366 69.344,17.832 129.826,33.384 183.05,47.069 47.197,12.135 89.333,22.971 127.184,32.703 17.517,4.506 34.186,8.79 50.069,12.875 7.662,1.973 15.145,3.896 22.46,5.776 6.603,1.481 17.33,4.913 12.122,2.711 3.265,-3.64 6.54,-7.285 9.811,-10.94 3.18,0.98 -6.963,-2.046 -13.555,-3.817 -7.256,-2.031 -14.685,-4.11 -22.291,-6.236 -15.764,-4.414 -32.317,-9.046 -49.716,-13.914 C 380.277,327.912 338.377,316.188 291.408,303.043 238.396,288.209 178.093,271.332 108.879,251.965 75.07,242.503 38.897,232.382 0.105,221.525 Z"
                 style="fill:#bfeafb;fill-opacity:1;fill-rule:nonzero;stroke:none"
                 id="path5512"
                 inkscape:connector-curvature="0" /></g></g></g><g
           id="g5518"><g
             id="g5520" /><g
             id="g5530"><g
               clip-path="url(#clipPath5524)"
               id="g5528"><path
                 d="m 0.105,110.185 c 23.829,9.047 46.632,17.706 68.477,25.999 46.728,17.749 89.464,33.969 128.7,48.866 69.551,26.402 129.301,49.09 181.191,68.795 45.482,17.268 85.675,32.531 121.452,46.113 15.38,7.473 34.407,9.5 44.55,20.394 3.674,6.602 2.73,17.565 -2.385,29.586 -4.754,11.887 -14.65,24.012 -22.996,35.937 2.342,0.582 4.667,1.159 6.974,1.73 4.296,-5.972 8.365,-11.554 12.911,-17.946 5.268,-7.434 9.716,-15.218 12.919,-22.679 6.586,-15.247 7.991,-29.215 3.504,-37.803 -2.031,-4.433 -6.583,-7.405 -10.418,-8.773 -3.735,-1.531 -7.521,-3.071 -11.354,-4.642 -7.826,-3.192 -15.857,-6.486 -24.117,-9.861 C 474.063,271.406 434.207,255.109 389.07,236.65 337.52,215.573 278.094,191.271 208.837,162.953 169.726,146.958 127.083,129.525 80.419,110.44 54.997,100.05 28.262,89.119 0.105,77.605 Z"
                 style="fill:#bd0c8d;fill-opacity:1;fill-rule:nonzero;stroke:none"
                 id="path5526"
                 inkscape:connector-curvature="0" /></g></g></g><g
           id="g5532"><g
             id="g5534" /><g
             id="g5544"><g
               clip-path="url(#clipPath5538)"
               id="g5542"><path
                 d="m 0.105,67.126 c 29.529,12.352 57.489,24.047 84.006,35.137 51.573,21.577 98.235,41.09 140.649,58.836 74.23,31.046 137.033,57.322 190.865,79.839 46.653,19.511 87.471,36.589 123.486,51.653 4.423,1.977 7.875,3.015 12.906,5.677 4.841,2.858 8.012,7.823 9.057,14.433 2.21,12.655 -3.286,31.28 -14.635,49.48 -21.191,30.778 -38.069,53.125 -56.599,79.086 2.489,0.37 4.958,0.724 7.403,1.093 8.9,-12.272 17.929,-24.664 27.032,-37.224 4.611,-6.323 9.223,-12.698 13.872,-19.105 4.746,-6.756 8.638,-11.306 16.568,-23.662 13.714,-21.865 20.582,-44.348 18.205,-59.821 -1.146,-8.122 -4.834,-14.316 -10.58,-17.958 -5.974,-3.356 -8.655,-4.082 -13.253,-6.313 C 513.457,262.214 473.048,243.985 426.814,223.14 373.418,199.046 311.025,170.923 237.185,137.625 194.934,118.568 148.408,97.596 96.932,74.379 66.632,60.713 34.42,46.188 0.105,30.714 Z"
                 style="fill:#80d6f7;fill-opacity:1;fill-rule:nonzero;stroke:none"
                 id="path5540"
                 inkscape:connector-curvature="0" /></g></g></g></g></g></g></svg>